<?xml version="1.0" encoding="UTF-8" standalone="no"?>
<svg
   xmlns:dc="http://purl.org/dc/elements/1.1/"
   xmlns:cc="http://creativecommons.org/ns#"
   xmlns:rdf="http://www.w3.org/1999/02/22-rdf-syntax-ns#"
   xmlns:svg="http://www.w3.org/2000/svg"
   xmlns="http://www.w3.org/2000/svg"
   xmlns:sodipodi="http://sodipodi.sourceforge.net/DTD/sodipodi-0.dtd"
   xmlns:inkscape="http://www.inkscape.org/namespaces/inkscape"
   height="40"
   width="40"
   viewBox="0 0 490 490"
   version="1.1"
   id="svg3771"
   sodipodi:docname="s.svg">
  <metadata
     id="metadata3777">
    <rdf:RDF>
      <cc:Work
         rdf:about="">
        <dc:format>image/svg+xml</dc:format>
        <dc:type
           rdf:resource="http://purl.org/dc/dcmitype/StillImage" />
      </cc:Work>
    </rdf:RDF>
  </metadata>
  <defs
     id="defs3775" />
  <sodipodi:namedview
     pagecolor="#ffffff"
     bordercolor="#666666"
     borderopacity="1"
     objecttolerance="10"
     gridtolerance="10"
     guidetolerance="10"
     inkscape:pageopacity="0"
     inkscape:pageshadow="2"
     inkscape:window-width="640"
     inkscape:window-height="480"
     id="namedview3773"
     showgrid="false" />
  <g
     id="g3769"
     fill="#000">
    <path
       d="m386.003906 186.046875v-104.363281c0-25.363282-21.007812-45.683594-46.371094-45.683594h-42.628906v-20.105469c-.007812-4.230469-1.699218-8.285156-4.703125-11.265625-3-2.984375-7.066406-4.6484372-11.296875-4.628906h-140c-4.230468-.0195312-8.296875 1.644531-11.296875 4.628906-3.003906 2.980469-4.695312 7.035156-4.703125 11.265625v20.105469h-41.171875c-12.144531-.050781-23.808593 4.742188-32.410156 13.316406-8.601563 8.574219-13.429687 20.222656-13.417969 32.367188v104.042968c-22.214844 4.398438-38.167968 23.964844-37.99999975 46.609376v168.273437c0 3.3125 2.25781275 6.390625 5.57421875 6.390625h9.191406l9.417969 77.964844c.390625 2.964844 2.96875 5.148437 5.957031 5.035156h47.019531c2.988282.113281 5.570313-2.070312 5.957032-5.035156l9.417968-77.964844h235.472657l9.417969 77.964844c.386718 2.964844 2.96875 5.148437 5.957031 5.035156h47.015625c2.988281.113281 5.570312-2.070312 5.957031-5.035156l9.421875-77.964844h10.648438c3.316406 0 5.574218-3.078125 5.574218-6.390625v-168.273437c0-22.515626-15-41.410157-36-46.289063zm-101-107.046875c0 2.210938-1.792968 4-4 4h-140c-2.210937 0-4-1.789062-4-4v-63c0-2.207031 1.789063-4 4-4h140c2.207032 0 4 1.792969 4 4zm-201.171875-31h41.171875v31.222656c.011719 4.21875 1.710938 8.257813 4.714844 11.222656 3.003906 2.960938 7.066406 4.601563 11.285156 4.554688h140c4.21875.046875 8.28125-1.59375 11.285156-4.554688 3.003907-2.964843 4.699219-7.003906 4.714844-11.222656v-31.222656h42.628906c18.746094 0 34.371094 14.9375 34.371094 33.683594v103.160156c-26 .679688-47 21.714844-47 47.492188v87.664062h-232v-87.664062c-.109375-25.21875-19.824218-46-45-47.4375v-103.214844c-.015625-8.964844 3.546875-17.5625 9.898438-23.886719 6.351562-6.324219 14.96875-9.851563 23.929687-9.796875zm-11.988281 430h-36.378906l-8.609375-71h53.601562zm313.238281 0h-36.378906l-8.609375-71h53.601562zm24.921875-83h-398v-162.664062c0-19.609376 15.894532-35.5 35.5-35.5 19.605469 0 35.5 15.890624 35.5 35.5v93.96875c-.074218 1.519531.488282 3 1.558594 4.082031 1.066406 1.082031 2.539062 1.667969 4.058594 1.613281h244.765625c1.519531.054688 2.992187-.53125 4.058593-1.613281 1.066407-1.082031 1.632813-2.5625 1.558594-4.082031v-93.96875c0-19.609376 15.894532-35.5 35.5-35.5 19.605469 0 35.5 15.890624 35.5 35.5zm0 0"
       id="path3765" />
    <path
       d="m182.054688 188.925781-4.777344 27.855469c-.382813 2.25.542968 4.523438 2.386718 5.867188 1.847657 1.339843 4.292969 1.519531 6.3125.460937l25.027344-13.152344 25.019532 13.152344c2.019531 1.0625 4.46875.882813 6.316406-.457031 1.847656-1.34375 2.773437-3.617188 2.386718-5.871094l-4.777343-27.855469 20.242187-19.734375c1.636719-1.59375 2.222656-3.976562 1.519532-6.148437-.707032-2.171875-2.585938-3.753907-4.84375-4.082031l-27.972657-4.0625-12.511719-25.347657c-1.011718-2.046875-3.097656-3.34375-5.378906-3.34375-2.285156 0-4.371094 1.296875-5.378906 3.34375l-12.511719 25.347657-27.972656 4.066406c-2.261719.328125-4.136719 1.910156-4.84375 4.082031s-.117187 4.558594 1.519531 6.152344zm15.902343-22.609375c1.953125-.285156 3.644531-1.511718 4.515625-3.28125l8.53125-17.273437 8.523438 17.273437c.875 1.769532 2.566406 2.996094 4.519531 3.28125l19.0625 2.769532-13.792969 13.445312c-1.414062 1.378906-2.058594 3.367188-1.726562 5.3125l3.257812 18.988281-17.050781-8.96875c-1.75-.917969-3.835937-.917969-5.585937 0l-17.050782 8.96875 3.257813-18.988281c.332031-1.945312-.3125-3.933594-1.726563-5.3125l-13.792968-13.445312zm0 0"
       id="path3767" />
  </g>
  <ellipse
     id="path3791"
     cx="16.743002"
     cy="15.521629"
     rx="7.1755724"
     ry="6.0050898"
     style="stroke-width:12.25" />
</svg>
